<svg width="150" height="150" viewBox="0 0 150 150" fill="none" xmlns="http://www.w3.org/2000/svg">
<path d="M107.288 100.368C107.288 102.204 108.017 103.963 109.315 105.261C110.611 106.558 112.372 107.287 114.207 107.287C116.042 107.287 117.802 106.558 119.099 105.261C120.396 103.963 121.125 102.204 121.125 100.368C121.125 98.5337 120.396 96.7735 119.099 95.4759C117.802 94.1782 116.041 93.4503 114.207 93.4503C112.373 93.4515 110.614 94.1816 109.317 95.4782C108.019 96.776 107.29 98.5339 107.288 100.368ZM116.513 100.368C116.513 101.301 115.951 102.142 115.089 102.499C114.228 102.856 113.235 102.659 112.576 101.999C111.916 101.34 111.719 100.348 112.076 99.4859C112.433 98.6241 113.274 98.0622 114.207 98.0622C115.48 98.0634 116.512 99.0956 116.513 100.368Z" fill="black"/>
<path d="M47.3262 98.0625C47.3262 96.228 46.5972 94.4677 45.2994 93.1702C44.0016 91.8724 42.2414 91.1434 40.4071 91.1434C38.5728 91.1434 36.8124 91.8724 35.5148 93.1702C34.2171 94.468 33.4881 96.2282 33.4881 98.0625C33.4881 99.8968 34.2171 101.657 35.5148 102.955C36.8126 104.253 38.5728 104.982 40.4071 104.982C42.2416 104.979 44.0007 104.249 45.2971 102.952C46.5937 101.656 47.3239 99.8968 47.3262 98.0625ZM38.1012 98.0625C38.1012 97.1298 38.6631 96.2886 39.5248 95.9316C40.3866 95.5746 41.3788 95.7725 42.0379 96.4317C42.6971 97.0909 42.8951 98.0831 42.538 98.9448C42.181 99.8065 41.3398 100.368 40.4072 100.368C39.1346 100.367 38.1023 99.3351 38.1012 98.0625Z" fill="black"/>
<path d="M123.431 84.2256C123.431 86.6712 124.402 89.0182 126.133 90.7488C127.862 92.478 130.209 93.4508 132.656 93.4508C135.101 93.4508 137.449 92.478 139.179 90.7488C140.908 89.0185 141.881 86.6713 141.881 84.2256C141.881 81.7788 140.908 79.4317 139.179 77.7023C137.449 75.972 135.102 75.0004 132.656 75.0004C130.209 75.0027 127.864 75.9754 126.135 77.7046C124.406 79.4338 123.433 81.7787 123.431 84.2256ZM132.656 79.6125C133.879 79.6125 135.052 80.0989 135.917 80.9641C136.781 81.8281 137.268 83.0022 137.268 84.2257C137.268 85.4491 136.781 86.6221 135.917 87.4873C135.052 88.3513 133.879 88.8377 132.656 88.8377C131.432 88.8377 130.258 88.3513 129.394 87.4873C128.529 86.6221 128.042 85.4491 128.042 84.2257C128.044 83.0023 128.53 81.8304 129.395 80.9652C130.26 80.1 131.432 79.6136 132.656 79.6125Z" fill="black"/>
<path d="M137.268 125.736C137.268 121.617 135.07 117.81 131.502 115.75C127.934 113.69 123.538 113.69 119.971 115.75C116.403 117.81 114.205 121.616 114.205 125.736H109.592C107.12 125.736 104.836 127.055 103.6 129.196C102.364 131.336 102.364 133.974 103.6 136.114C104.836 138.255 107.121 139.574 109.592 139.574H137.268C139.739 139.574 142.024 138.255 143.26 136.114C144.496 133.974 144.496 131.336 143.26 129.196C142.024 127.055 139.739 125.736 137.268 125.736Z" fill="black"/>
<path d="M45.0176 118.819H35.7926C35.7926 114.7 33.5942 110.893 30.0258 108.833C26.4586 106.773 22.0629 106.773 18.4948 108.833C14.9276 110.893 12.7292 114.699 12.7292 118.819C10.2573 118.819 7.97314 120.138 6.73711 122.279C5.50107 124.42 5.50113 127.057 6.73711 129.198C7.97309 131.338 10.2574 132.658 12.7292 132.658H45.0173C47.4881 132.658 49.7722 131.338 51.0082 129.198C52.2442 127.057 52.2442 124.42 51.0082 122.279C49.7722 120.138 47.4879 118.819 45.0173 118.819H45.0176Z" fill="black"/>
<path d="M75 99.4131L80.9634 93.4497H69.0352L75 99.4131Z" fill="black"/>
<path d="M39.2988 36.1553C39.9901 42.992 42.2572 49.5759 45.9193 55.3905L67.0438 88.8387H71.7255L61.2952 59.6333L65.6394 58.0826L74.9982 84.2872L84.3571 58.0826L88.7013 59.6333L78.2701 88.8387H82.9518L104.076 55.3905C107.74 49.5756 110.005 42.992 110.697 36.1553C111.407 29.1698 108.933 22.2358 103.958 17.2793C101.979 15.2961 99.4975 13.8862 96.7784 13.2006C94.0605 12.5163 91.2073 12.5804 88.5237 13.3883L79.3983 16.1269C79.158 16.3134 78.9062 16.4851 78.6442 16.6396L86.1413 27.8858L82.3039 30.4447L74.9774 19.4537L67.6795 30.1722L63.8662 27.5778L71.3244 16.6235C71.0714 16.4724 70.8288 16.3065 70.5976 16.1256L61.4723 13.3871H61.4711C58.7875 12.5791 55.9346 12.515 53.2164 13.1994C50.4985 13.8849 48.0162 15.2948 46.0363 17.2793C41.0626 22.2357 38.5873 29.1697 39.2981 36.1552L39.2988 36.1553ZM60.6832 35.3165C62.5658 33.4385 65.0938 32.3466 67.7522 32.2631C70.4106 32.1796 73.0017 33.1111 74.9985 34.8678C77.7428 32.4485 81.5514 31.6393 85.043 32.7323C88.5346 33.8264 91.2 36.6657 92.073 40.218C92.9462 43.7714 91.9002 47.5217 89.3127 50.1092L76.6281 62.7939H76.6292C76.1966 63.2265 75.6095 63.4702 74.9984 63.4702C74.3862 63.4702 73.8002 63.2265 73.3676 62.7939L60.683 50.1092C58.7237 48.1465 57.6241 45.487 57.6241 42.7129C57.6241 39.94 58.7241 37.2802 60.6832 35.3165Z" fill="black"/>
<path d="M125.341 31.9307C124.01 26.7352 121.244 22.0178 117.36 18.3179C113.477 14.618 108.631 12.0856 103.376 11.0074C104.776 11.8509 106.067 12.8625 107.223 14.0171C113.176 19.9509 116.139 28.2513 115.288 36.6135C114.524 44.1633 112.022 51.4324 107.979 57.8526L88.4086 88.837H91.5592L86.0235 116.512H63.9662L58.1388 88.837H61.5902L42.0196 57.8526C37.9752 51.4324 35.4724 44.163 34.7092 36.6135C33.8578 28.2513 36.8206 19.9509 42.7749 14.0171C43.9296 12.8624 45.2217 11.8508 46.6201 11.0074C37.911 12.7939 30.5273 18.5285 26.6399 26.5245C22.7534 34.5205 22.8061 43.8703 26.7818 51.8218C33.1275 64.4675 41.9052 75.7365 52.6123 84.9859L59.2522 116.515H58.855C57.5813 116.515 56.5491 117.547 56.5491 118.821C56.5491 120.095 57.5813 121.127 58.855 121.127H91.1431C92.4169 121.127 93.4502 120.095 93.4502 118.821C93.4502 117.547 92.4169 116.515 91.1431 116.515H90.7277L96.96 85.3521C107.858 76.0377 116.786 64.6383 123.216 51.8247C126.296 45.6665 127.05 38.6045 125.341 31.9336L125.341 31.9307Z" fill="black"/>
<path d="M75 131.062C71.3311 133.695 66.6 134.352 62.3531 132.817L63.1977 139.573H86.801L87.6456 132.817C83.3987 134.35 78.6688 133.694 75 131.062Z" fill="black"/>
<path d="M61.6582 127.263C63.3908 128.542 65.5228 129.159 67.6708 129.003C69.8188 128.848 71.8398 127.929 73.3688 126.412C73.8014 125.98 74.3873 125.737 74.9995 125.737C75.6106 125.737 76.1977 125.98 76.6303 126.412C78.1593 127.929 80.1802 128.848 82.3271 129.003C84.4751 129.159 86.6071 128.542 88.3397 127.263L88.5308 125.737H61.4678L61.6582 127.263Z" fill="black"/>
</svg>
