<svg width="150" height="150" viewBox="0 0 150 150" fill="none" xmlns="http://www.w3.org/2000/svg">
<path d="M114.691 145.916H110.839C109.709 145.916 108.623 145.466 107.823 144.666C107.023 143.866 106.573 142.781 106.573 141.65V123.73H43.4266V141.65C43.4266 142.781 42.9768 143.866 42.1769 144.666C41.3769 145.466 40.2921 145.916 39.1602 145.916H35.3082C34.1776 145.916 33.0915 145.466 32.2915 144.666C31.4916 143.866 31.0419 142.781 31.0419 141.65V123.73H22.2551C20.9505 123.736 19.6974 123.22 18.775 122.298C17.8526 121.375 17.3364 120.122 17.3433 118.818V81.2941C15.4791 81.5539 13.6056 80.889 12.3239 79.51C11.0421 78.1321 10.5134 76.2152 10.9083 74.3763C10.914 72.9366 11.4908 71.5576 12.5104 70.5425C13.5313 69.5262 14.9114 68.9563 16.351 68.9563H49.6293C51.5817 66.965 52.9677 64.4885 53.6427 61.7833H50.7359C49.8936 61.781 49.0673 61.5475 48.3475 61.1081C47.6277 60.6698 47.0417 60.0415 46.6538 59.293L42.3876 51.0132C41.028 50.8758 39.7875 50.1732 38.9715 49.0768C38.1556 47.9793 37.8386 46.59 38.0984 45.2477C38.1361 43.8435 38.785 42.5251 39.8756 41.6395C40.9663 40.7526 42.3887 40.3864 43.7712 40.6358C44.0344 33.3254 46.8691 26.3422 51.7763 20.9164C56.6824 15.4906 63.3462 11.9718 70.5937 10.9772V8.48578C70.5937 6.91222 71.4326 5.45765 72.7955 4.67133C74.1585 3.88397 75.8374 3.88397 77.2003 4.67133C78.5633 5.45754 79.4033 6.91207 79.4033 8.48578V10.9772C86.6496 11.9716 93.3134 15.4906 98.2207 20.9164C103.127 26.3422 105.961 33.3251 106.225 40.6358C107.607 40.3864 109.03 40.7526 110.12 41.6395C111.211 42.5253 111.86 43.8436 111.897 45.2477C112.165 46.5912 111.851 47.984 111.033 49.0827C110.216 50.1824 108.971 50.8828 107.608 51.0133L103.342 59.2463V59.2474C102.954 59.9959 102.368 60.623 101.648 61.0625C100.93 61.5019 100.103 61.7354 99.26 61.7377H96.4688C97.1498 64.4408 98.5345 66.9162 100.482 68.9095H133.623C135.063 68.9095 136.444 69.4806 137.463 70.4957C138.483 71.5119 139.06 72.8898 139.066 74.3295C139.46 76.1697 138.932 78.0865 137.65 79.4643C136.368 80.8422 134.495 81.5083 132.63 81.2485V118.816C132.63 120.112 132.116 121.356 131.199 122.273C130.282 123.19 129.038 123.705 127.742 123.705H118.955V141.648C118.955 142.78 118.505 143.865 117.705 144.665C116.905 145.465 115.82 145.914 114.688 145.914L114.691 145.916ZM110.079 123.729L110.078 141.65C110.078 142.096 110.44 142.457 110.886 142.457H114.737C115.184 142.457 115.545 142.096 115.545 141.65V123.731L110.079 123.729ZM34.5492 123.729L34.5481 141.65C34.5481 142.096 34.9097 142.457 35.356 142.457H39.2071C39.6534 142.457 40.0139 142.096 40.0139 141.65V123.731L34.5492 123.729ZM117.275 120.27H127.791L127.79 120.271C128.579 120.271 129.22 119.63 129.22 118.84V102.673C126.411 105.621 122.386 107.086 118.339 106.633C114.293 106.181 110.691 103.862 108.603 100.367C106.259 104.316 102.007 106.736 97.4171 106.736C92.8257 106.736 88.5741 104.315 86.2315 100.367C83.8878 104.316 79.6374 106.736 75.046 106.736C70.4546 106.736 66.2042 104.315 63.8604 100.367C61.5167 104.316 57.2663 106.736 52.6749 106.736C48.0835 106.736 43.8331 104.315 41.4893 100.367C39.4008 103.862 35.7993 106.181 31.7528 106.633C27.7063 107.086 23.6812 105.621 20.8716 102.673V118.817C20.8716 119.607 21.5114 120.248 22.301 120.248L117.275 120.27ZM108.555 92.0648C109.511 92.0648 110.286 92.8396 110.286 93.7952C110.447 97.058 112.282 100.007 115.137 101.593C117.994 103.18 121.466 103.18 124.322 101.593C127.179 100.007 129.013 97.058 129.174 93.7952V81.2948H20.7818V93.7952H20.7807C20.942 97.058 22.7765 100.007 25.6328 101.593C28.4881 103.18 31.9615 103.18 34.818 101.593C37.6733 100.007 39.5078 97.058 39.6692 93.7952C39.6692 92.8396 40.444 92.0648 41.3996 92.0648C42.354 92.0648 43.1287 92.8396 43.1287 93.7952C43.1287 97.1734 44.9312 100.294 47.8564 101.983C50.7826 103.673 54.3864 103.673 57.3125 101.983C60.2377 100.294 62.0402 97.1734 62.0402 93.7952C62.0402 92.8396 62.8149 92.0648 63.7694 92.0648C64.7249 92.0648 65.4997 92.8396 65.4997 93.7952C65.4997 97.1734 67.3021 100.294 70.2273 101.983C73.1525 103.672 76.7573 103.673 79.6835 101.983C82.6086 100.294 84.4111 97.1734 84.4111 93.7952C84.4111 92.8396 85.1847 92.0648 86.1403 92.0648C87.0959 92.0648 87.8706 92.8396 87.8706 93.7952C88.2391 106.226 106.321 106.272 106.782 93.7952C106.788 93.3306 106.978 92.8865 107.311 92.5627C107.644 92.2376 108.092 92.0591 108.557 92.0648H108.555ZM16.3055 72.3694H16.3066C15.2194 72.3694 14.3359 73.2438 14.3234 74.3298V75.8519C14.336 76.9425 15.216 77.8225 16.3066 77.8351H133.626C134.717 77.8225 135.597 76.9425 135.609 75.8519V74.3298C135.597 73.2438 134.712 72.3694 133.626 72.3694H16.3055ZM53.8963 68.9098H96.034C94.4993 66.7697 93.4453 64.323 92.9429 61.7379H57.0571C56.5559 64.3231 55.5019 66.7699 53.9672 68.9098H53.8963ZM94.4188 58.2783H99.1934C99.6214 58.2748 100.012 58.0356 100.208 57.6557L103.645 51.0135H46.2875L49.6315 57.6557C49.8283 58.0356 50.2186 58.2748 50.6466 58.2783H94.4188ZM42.7128 44.0945C41.4207 44.0945 41.5592 45.4781 41.5833 46.4004V46.4016C41.5833 47.0253 42.0891 47.5311 42.7128 47.5311H107.289C107.913 47.5311 108.418 47.0253 108.418 46.4016V45.248C108.418 43.5646 106.113 44.2329 104.613 44.0945H45.4337H42.7128ZM47.3247 40.6348L102.675 40.6359C100.162 5.46504 49.8149 5.48848 47.3247 40.6359V40.6348ZM75 10.6524H75.9453C75.9453 9.5915 76.4065 7.56243 75 7.51555C73.5935 7.46978 74.1703 9.5915 74.0547 10.6524H75ZM119.742 99.167C117.814 99.167 116.033 98.1393 115.068 96.4685C114.105 94.7988 114.105 92.7422 115.068 91.0726C116.033 89.4029 117.814 88.3741 119.742 88.3741C121.67 88.3741 123.452 89.4029 124.416 91.0726C125.38 92.7423 125.38 94.7989 124.416 96.4685C123.452 98.1393 121.67 99.167 119.742 99.167ZM119.742 91.8337C118.672 91.8337 117.805 92.7012 117.805 93.7712C117.805 94.8412 118.672 95.7076 119.742 95.7076C120.812 95.7076 121.68 94.8412 121.68 93.7712C121.68 92.7012 120.812 91.8337 119.742 91.8337ZM97.3714 99.167C95.4442 99.167 93.6624 98.1393 92.6988 96.4685C91.7341 94.7988 91.7341 92.7422 92.6988 91.0726C93.6624 89.4029 95.4443 88.3741 97.3714 88.3741C99.2997 88.3741 101.082 89.4029 102.045 91.0726C103.01 92.7423 103.01 94.7989 102.045 96.4685C101.082 98.1393 99.2997 99.167 97.3714 99.167ZM97.3714 91.8337C96.3025 91.8337 95.435 92.7012 95.435 93.7712C95.435 94.8412 96.3025 95.7076 97.3714 95.7076C98.4414 95.7076 99.3089 94.8412 99.3089 93.7712C99.3089 92.7012 98.4414 91.8337 97.3714 91.8337ZM75.0018 99.167C73.0734 99.167 71.2916 98.1393 70.328 96.4685C69.3633 94.7988 69.3633 92.7422 70.328 91.0726C71.2916 89.4029 73.0735 88.3741 75.0018 88.3741C76.9289 88.3741 78.7107 89.4029 79.6743 91.0726C80.6391 92.7423 80.6391 94.7989 79.6743 96.4685C78.7107 98.1393 76.9289 99.167 75.0018 99.167ZM75.0018 91.8337C73.9192 91.8337 73.0414 92.7115 73.0414 93.7941C73.0414 94.8767 73.9192 95.7545 75.0018 95.7545C76.0844 95.7545 76.9621 94.8767 76.9621 93.7941C76.9621 92.7115 76.0844 91.8337 75.0018 91.8337ZM52.631 99.167C50.7026 99.167 48.9208 98.1393 47.9572 96.4685C46.9936 94.7988 46.9936 92.7422 47.9572 91.0726C48.9208 89.4029 50.7027 88.3741 52.631 88.3741C54.5592 88.3741 56.3399 89.4029 57.3047 91.0726C58.2683 92.7423 58.2683 94.7989 57.3047 96.4685C56.3399 98.1393 54.5592 99.167 52.631 99.167ZM52.631 91.8337C51.561 91.8337 50.6935 92.7012 50.6935 93.7712C50.6935 94.8412 51.5609 95.7076 52.631 95.7076C53.701 95.7076 54.5685 94.8412 54.5685 93.7712C54.5685 92.7012 53.701 91.8337 52.631 91.8337ZM30.2602 99.167C28.3318 99.167 26.55 98.1393 25.5864 96.4685C24.6228 94.7988 24.6228 92.7422 25.5864 91.0726C26.55 89.4029 28.3319 88.3741 30.2602 88.3741C32.1884 88.3741 33.9703 89.4029 34.9339 91.0726C35.8975 92.7423 35.8975 94.7989 34.9339 96.4685C33.9703 98.1393 32.1884 99.167 30.2602 99.167ZM30.2602 91.8337C29.1901 91.8337 28.3227 92.7012 28.3227 93.7712C28.3227 94.8412 29.1901 95.7076 30.2602 95.7076C31.3302 95.7076 32.1976 94.8412 32.1976 93.7712C32.1976 92.7012 31.3302 91.8337 30.2602 91.8337Z" fill="black"/>
</svg>
