<svg width="150" height="150" viewBox="0 0 150 150" fill="none" xmlns="http://www.w3.org/2000/svg">
<path d="M113.514 124.954C71.5401 123.432 70.1104 63.9052 111.899 60.1933V49.7918C111.858 48.201 110.854 46.7956 109.363 46.2407C106.894 45.205 104.886 43.3075 103.711 40.9031C102.535 38.4976 102.274 35.7474 102.974 33.1634C106.225 21.2399 123.73 23.0847 124.629 35.3309L127.097 37.7754L127.098 37.7766C127.773 38.4575 127.767 39.5573 127.086 40.2325C126.404 40.9077 125.305 40.902 124.631 40.221L121.585 37.2913C121.261 36.9675 121.078 36.528 121.078 36.0691C121.092 34.2335 120.437 32.455 119.236 31.0658C118.035 29.6765 116.369 28.7724 114.55 28.5206C112.731 28.2688 110.882 28.6877 109.35 29.6982C107.817 30.7098 106.704 32.2434 106.218 34.0136C105.733 35.7852 105.908 37.6722 106.711 39.3237C107.515 40.9751 108.891 42.2774 110.585 42.9881C111.929 43.542 113.082 44.4759 113.902 45.6775C114.721 46.878 115.172 48.2925 115.197 49.746V60.1475C156.919 63.9057 155.442 123.432 113.514 124.952L113.514 124.954ZM113.283 63.6093L113.284 63.6082C105.645 63.6689 98.3399 66.745 92.9578 72.1661C87.5757 77.586 84.5531 84.9138 84.5475 92.5526C86.1394 130.952 140.865 130.952 142.459 92.5526H142.458C142.446 84.8394 139.361 77.4498 133.886 72.0173C128.41 66.5859 120.996 63.559 113.284 63.6082L113.283 63.6093ZM36.4837 124.954C-5.46651 123.432 -6.8962 63.9052 34.7545 60.1933V49.7918C34.7133 48.201 33.7085 46.7956 32.2173 46.2407C29.7546 45.197 27.7531 43.2984 26.5789 40.8964C25.4047 38.4931 25.1392 35.7477 25.8293 33.1634C29.1047 21.2399 46.5855 23.0847 47.4849 35.3309L49.9523 37.7754V37.7766C50.6263 38.4518 50.6263 39.5458 49.9523 40.221C49.6307 40.5506 49.1901 40.736 48.73 40.736C48.27 40.736 47.8294 40.5506 47.5078 40.221L44.5553 37.2913C44.2314 36.9675 44.0483 36.528 44.0483 36.0691C44.062 34.2335 43.4074 32.4551 42.2058 31.0658C41.0053 29.6765 39.339 28.7724 37.5206 28.5206C35.7022 28.2689 33.8527 28.6877 32.3204 29.6982C30.7869 30.7099 29.6746 32.2434 29.1883 34.0136C28.7031 35.7852 28.8793 37.6722 29.6827 39.3237C30.4861 40.9751 31.8616 42.2774 33.5554 42.9882C34.9036 43.5363 36.0594 44.4702 36.88 45.6718C37.7006 46.8735 38.148 48.2902 38.1675 49.7458V60.1474C79.9097 63.9056 78.4126 123.432 36.4841 124.952L36.4837 124.954ZM36.2766 63.6093V63.6082C28.6377 63.6689 21.3328 66.745 15.9507 72.1661C10.5685 77.586 7.54598 84.9138 7.54042 92.5526C9.13229 130.952 63.8578 130.952 65.4515 92.5526C65.439 84.8394 62.3537 77.4498 56.8787 72.0173C51.4037 66.5859 43.9892 63.559 36.2771 63.6082L36.2766 63.6093ZM113.512 117.138C106.977 117.156 100.705 114.574 96.0756 109.963C91.4452 105.352 88.8407 99.087 88.8349 92.5535C90.1727 59.9431 136.644 59.9431 138.004 92.5535C137.998 99.0559 135.419 105.291 130.83 109.898C126.239 114.504 120.014 117.107 113.511 117.138H113.512ZM113.512 71.4287C107.911 71.4344 102.542 73.6626 98.5808 77.6235C94.6198 81.5833 92.393 86.9528 92.3871 92.5547C93.5407 120.576 133.485 120.576 134.636 92.5547C134.629 86.9528 132.402 81.5833 128.441 77.6235C124.48 73.6626 119.111 71.4345 113.51 71.4287H113.512ZM36.4816 117.138C29.9631 117.132 23.7135 114.54 19.1051 109.93C14.4955 105.32 11.9033 99.0709 11.8974 92.5535C13.2581 59.9431 59.7305 59.9431 61.0664 92.5535C61.0595 99.0709 58.4674 105.32 53.8588 109.93C49.2492 114.54 42.9996 117.132 36.481 117.138H36.4816ZM36.4816 71.4287C30.8809 71.4344 25.5114 73.6626 21.5505 77.6235C17.5895 81.5833 15.3627 86.9528 15.3568 92.5547C16.5333 120.576 56.4545 120.576 57.6058 92.5547C57.599 86.9528 55.372 81.5833 51.411 77.6235C47.4501 73.6626 42.0806 71.4345 36.4799 71.4287H36.4816ZM113.488 104.546C113.03 104.548 112.589 104.365 112.266 104.038L103.548 95.3196C94.6685 86.5557 103.986 75.5785 113.489 83.0275C123.429 75.3702 131.939 87.1097 123.751 95.0427L114.711 104.037V104.038C114.393 104.372 113.949 104.556 113.488 104.546ZM107.285 84.0199C102.948 84.3197 102.096 88.7944 106.108 92.8763L113.511 100.371L121.283 92.6223C126.887 87.111 121.122 80.1917 114.711 86.5341C114.035 87.2082 112.941 87.2082 112.266 86.5341C110.998 85.0762 109.209 84.1744 107.285 84.0199ZM36.4828 104.546C36.0239 104.548 35.5833 104.365 35.2606 104.038L26.5664 95.3208C17.6868 86.5569 26.9819 75.5796 36.5069 83.0287C46.4473 75.3713 54.9571 87.1109 46.7698 95.0439L37.7291 104.038H37.728C37.4007 104.371 36.9497 104.554 36.4828 104.546ZM30.1406 84.0199C25.8284 84.3197 24.9747 88.7944 28.987 92.8763L36.4829 100.371L44.186 92.6909C45.7824 91.2718 46.6339 89.1958 46.492 87.0638C45.5238 83.1887 41.3717 82.9588 37.6824 86.5798C36.9969 87.2298 35.9234 87.2298 35.2379 86.5798C33.9493 85.0806 32.1135 84.1584 30.1406 84.0199Z" fill="black"/>
</svg>
