<svg width="150" height="150" viewBox="0 0 150 150" fill="none" xmlns="http://www.w3.org/2000/svg">
<path d="M29.7041 145.916C29.3333 145.913 28.9671 145.842 28.6204 145.709L6.24956 136.738C5.12918 136.271 4.41622 135.158 4.46312 133.944C4.5089 132.731 5.30426 131.674 6.45782 131.295L15.6828 128.389V128.388C16.3122 128.198 16.8215 127.731 17.0664 127.12L27.0297 102.282C27.357 101.347 27.0503 100.307 26.2687 99.6992C20.9779 95.8768 17.1181 90.3962 15.2996 84.1285C13.4823 77.8604 13.8119 71.1646 16.2357 65.1048L24.0545 45.5708C24.8842 43.5258 26.4909 41.8914 28.5223 41.0275C30.5536 40.1623 32.8447 40.1383 34.8943 40.9588L74.9549 57.1029L115.059 40.8659C117.109 40.0454 119.4 40.0706 121.431 40.9346C123.463 41.7986 125.07 43.4328 125.899 45.4791L133.718 65.0131C136.142 71.0717 136.471 77.7675 134.654 84.0356C132.836 90.3036 128.975 95.7842 123.685 99.6063C122.903 100.215 122.597 101.254 122.924 102.189L132.887 127.12C133.132 127.731 133.641 128.198 134.271 128.388L143.496 131.294V131.295C144.649 131.674 145.445 132.731 145.491 133.944C145.538 135.157 144.825 136.271 143.704 136.738L121.333 145.709C120.202 146.139 118.921 145.822 118.12 144.914C117.32 144.005 117.166 142.696 117.735 141.627L122.347 133.094V133.093C122.612 132.499 122.612 131.82 122.347 131.225L112.638 106.364C112.281 105.43 111.32 104.873 110.332 105.026C103.867 105.914 97.2901 104.609 91.6552 101.319C86.019 98.0273 81.6485 92.9426 79.2441 86.8761L75.0008 76.3599L70.7803 86.8761C68.3598 92.9288 63.986 97.9998 58.3519 101.28C52.719 104.561 46.1504 105.863 39.6913 104.981C38.7071 104.844 37.7572 105.396 37.3853 106.318L27.3992 131.226C27.1794 131.84 27.2298 132.519 27.5376 133.093L32.1496 141.626V141.627C32.6291 142.511 32.6188 143.578 32.121 144.451C31.6231 145.325 30.7099 145.878 29.7051 145.916L29.7041 145.916ZM110.631 101.543C111.743 101.532 112.834 101.852 113.762 102.464C114.691 103.076 115.416 103.952 115.843 104.98L125.737 129.934C126.357 131.513 126.247 133.285 125.437 134.777L121.562 141.88L140.98 134.108L133.232 131.664V131.663C131.612 131.166 130.307 129.962 129.681 128.387L119.717 103.572C119.257 102.404 119.198 101.115 119.548 99.9087C119.898 98.7025 120.64 97.6474 121.655 96.907C126.326 93.5299 129.735 88.6889 131.34 83.1524C132.945 77.6159 132.653 71.7014 130.51 66.3492L122.692 46.7923H122.693C122.208 45.5941 121.273 44.6328 120.087 44.1178C118.89 43.6223 117.546 43.6223 116.35 44.1178L76.7294 59.9153V71.4463L82.4261 85.6529C84.6303 91.1071 88.621 95.6493 93.7467 98.5368C98.8714 101.424 104.824 102.484 110.631 101.543L110.631 101.543ZM9.01758 134.13L28.4358 141.88L24.4922 134.776C23.682 133.285 23.5721 131.513 24.1924 129.933L34.1556 104.98C34.6191 103.81 35.4626 102.831 36.5498 102.2C37.6381 101.568 38.9061 101.32 40.1512 101.497C45.8539 102.279 51.6538 101.127 56.6249 98.2264C61.5951 95.3253 65.4494 90.8415 67.5734 85.4913L73.2702 71.2847V59.7537L33.6461 44.0708C32.4502 43.5764 31.1067 43.5764 29.9108 44.0708C28.7252 44.5869 27.7891 45.5483 27.3038 46.7464L19.5094 66.349C17.3568 71.698 17.0569 77.6122 18.658 83.1513C20.259 88.689 23.6683 93.5324 28.3421 96.9071C29.3571 97.6475 30.0987 98.7027 30.4489 99.9088C30.8002 101.115 30.7407 102.404 30.2796 103.572L20.3163 128.411C19.6914 129.985 18.3845 131.19 16.7652 131.686L9.01758 134.13ZM43.8193 98.0596C29.3827 98.0596 17.9203 84.0841 22.3708 69.9689C22.594 69.241 23.2692 68.7444 24.0313 68.7466H67.505C68.0795 68.7443 68.6162 69.0305 68.9355 69.5077C69.2571 69.9838 69.3257 70.5869 69.1197 71.1224L63.7227 84.6139C62.1228 88.584 59.3738 91.9839 55.8275 94.3803C52.2811 96.7756 48.0992 98.0574 43.8204 98.0598L43.8193 98.0596ZM25.369 72.2063C20.7571 93.7934 51.7752 103.847 60.5165 83.3218L64.967 72.2063H25.369ZM106.182 98.0596C101.902 98.0573 97.7197 96.7756 94.1733 94.3802C90.6278 91.9838 87.878 88.5838 86.2781 84.6138L80.8811 71.1223C80.6751 70.5867 80.7437 69.9836 81.0665 69.5075C81.3846 69.0303 81.9213 68.7442 82.4958 68.7465H125.969C126.733 68.7442 127.407 69.2409 127.63 69.9687C132.082 84.084 120.642 98.0595 106.183 98.0595L106.182 98.0596ZM85.0559 72.2063L89.5064 83.3218C98.2474 103.848 129.151 93.7691 124.654 72.2063H85.0559ZM75.0012 45.6847C74.5411 45.687 74.1005 45.5039 73.7789 45.1777L57.6349 29.0337C52.5607 23.9366 50.463 18.0095 51.8693 12.751C54.8206 2.28093 67.2753 1.70408 75.0012 9.13025C82.7271 1.70408 95.1806 2.28093 98.2248 12.7282C99.6313 17.9867 97.5325 23.9137 92.4592 29.0108L76.3152 45.1549V45.1537C75.9764 45.5154 75.4956 45.7099 75.0012 45.6847ZM63.2391 7.54016C52.8375 8.11696 52.6304 19.902 60.0106 26.567L75.0012 41.5576L90.0146 26.567C102.999 13.8595 88.9309 -0.231719 76.1777 12.7301L76.1766 12.729C75.4922 13.379 74.4176 13.379 73.7321 12.729C71.0519 9.68823 67.282 7.82404 63.2391 7.54016Z" fill="black"/>
</svg>
