<svg width="150" height="150" viewBox="0 0 150 150" fill="none" xmlns="http://www.w3.org/2000/svg">
<path d="M75 145.916C53.4829 145.916 31.6875 141.604 31.6875 133.324C31.6875 126.267 47.0936 123.154 55.7189 121.978C0.965921 71.0098 22.253 5.92676 74.9988 4.08105C127.719 5.92585 149.053 70.9629 94.2788 121.978C102.904 123.154 118.31 126.267 118.31 133.324C118.31 141.604 96.5159 145.916 74.9977 145.916H75ZM59.1328 125.16C42.5974 126.936 35.1483 131.064 35.1483 133.44C35.1483 137.176 50.6698 142.665 75.0009 142.665C99.3322 142.665 114.853 137.268 114.853 133.44C114.853 131.134 107.404 126.936 90.8689 125.16H90.8678C86.1185 129.225 81.1439 133.021 75.9698 136.53C75.3827 136.919 74.6193 136.919 74.0323 136.53C68.8549 132.983 63.8815 129.149 59.1342 125.044L59.1328 125.16ZM60.8391 122.046C65.3494 125.925 70.0779 129.545 75.0001 132.886C118.034 104.681 124.538 65.5204 122.484 55.2812C122.528 42.6516 117.546 30.5218 108.639 21.5663C99.7325 12.6114 87.6291 7.56563 75.0006 7.5416C25.1169 9.2937 4.72916 71.8863 60.8397 121.931L60.8391 122.046ZM75.0001 93.3108C64.8502 93.2983 55.1195 89.2608 47.9429 82.0843C40.7652 74.9065 36.7278 65.1768 36.7164 55.0271C38.8152 4.29082 111.186 4.29082 113.284 55.0271C113.271 65.1771 109.234 74.9065 102.057 82.0843C94.8795 89.2608 85.1497 93.2982 75.0001 93.3108ZM75.0001 20.2034C65.7657 20.2091 56.9116 23.8805 50.3816 30.4093C43.8528 36.9393 40.1816 45.7937 40.1757 55.0277C42.0904 101.153 107.91 101.153 109.823 55.0277C109.816 45.7934 106.146 36.9393 99.6162 30.4093C93.0862 23.8805 84.233 20.2093 74.9989 20.2034H75.0001ZM64.6682 68.6341H64.6671C64.2093 68.6181 63.7779 68.4178 63.4677 68.0802L53.4587 58.0712C43.4041 48.1308 53.9897 35.8615 64.69 44.4643H64.6911C66.0335 43.1665 67.709 42.2636 69.5319 41.8573C71.3549 41.4499 73.2546 41.554 75.0227 42.1583C76.7908 41.5598 78.6895 41.4579 80.5112 41.8642C82.3331 42.2716 84.0086 43.1699 85.3542 44.4643C96.0326 35.8618 106.641 48.1311 96.6323 58.0712L86.5308 68.0802C85.8831 68.689 84.8725 68.689 84.2248 68.0802L74.9998 59.0163L65.8891 68.0802C65.5595 68.3903 65.12 68.5563 64.6668 68.5414L64.6682 68.6341ZM77.306 56.5491L85.263 64.4593L94.0955 55.6726C101.453 48.2007 93.957 40.7048 86.485 48.0621C85.8087 48.7362 84.7146 48.7362 84.0394 48.0621C82.6387 46.4634 80.7356 45.3899 78.6435 45.0179C79.6815 46.8306 80.1118 48.9284 79.8703 51.0032C79.63 53.078 78.7305 55.0213 77.3057 56.5491H77.306ZM57.3337 45.0182C52.145 45.3638 51.0144 50.7838 55.8346 55.6497L64.6213 64.4364L73.4537 55.6497C80.3727 49.1004 73.8691 40.2665 65.7964 48.0164L65.7975 48.0153C65.1223 48.6905 64.0283 48.6905 63.3531 48.0153C61.831 46.2723 59.6863 45.1954 57.3791 45.0182L57.3337 45.0182Z" fill="black"/>
</svg>
